<mxfile host="65bd71144e">
    <diagram id="T9uuaTeBy4bPSP1g8a4x" name="Page-1">
        <mxGraphModel dx="835" dy="509" grid="1" gridSize="10" guides="1" tooltips="1" connect="1" arrows="1" fold="1" page="1" pageScale="1" pageWidth="827" pageHeight="1169" background="#FFFFFF" math="0" shadow="0">
            <root>
                <mxCell id="0"/>
                <mxCell id="1" parent="0"/>
                <mxCell id="186" value="" style="endArrow=none;html=1;rounded=0;" parent="1" edge="1">
                    <mxGeometry width="50" height="50" relative="1" as="geometry">
                        <mxPoint x="200" y="360" as="sourcePoint"/>
                        <mxPoint x="200" y="80" as="targetPoint"/>
                    </mxGeometry>
                </mxCell>
                <mxCell id="187" value="" style="endArrow=none;html=1;rounded=0;" parent="1" edge="1">
                    <mxGeometry width="50" height="50" relative="1" as="geometry">
                        <mxPoint x="200" y="360" as="sourcePoint"/>
                        <mxPoint x="800" y="360" as="targetPoint"/>
                    </mxGeometry>
                </mxCell>
                <mxCell id="189" value="0" style="rounded=0;whiteSpace=wrap;html=1;strokeColor=none;fillColor=none;align=right;" parent="1" vertex="1">
                    <mxGeometry x="160" y="350" width="30" height="20" as="geometry"/>
                </mxCell>
                <mxCell id="196" value="y" style="rounded=0;whiteSpace=wrap;html=1;strokeColor=none;fillColor=none;align=center;fontStyle=1" parent="1" vertex="1">
                    <mxGeometry x="160" y="80" width="40" height="280" as="geometry"/>
                </mxCell>
                <mxCell id="197" value="x" style="rounded=0;whiteSpace=wrap;html=1;strokeColor=none;fillColor=none;align=center;fontStyle=1" parent="1" vertex="1">
                    <mxGeometry x="200" y="360" width="600" height="40" as="geometry"/>
                </mxCell>
                <mxCell id="198" value="" style="endArrow=none;html=1;rounded=0;strokeWidth=2;fillColor=#dae8fc;strokeColor=#6c8ebf;dashed=1;" parent="1" edge="1">
                    <mxGeometry width="50" height="50" relative="1" as="geometry">
                        <mxPoint x="200" y="360" as="sourcePoint"/>
                        <mxPoint x="720" y="120" as="targetPoint"/>
                    </mxGeometry>
                </mxCell>
                <mxCell id="200" value="&lt;font color=&quot;#82b366&quot;&gt;Actual&lt;/font&gt;" style="text;html=1;strokeColor=none;fillColor=none;align=center;verticalAlign=middle;whiteSpace=wrap;rounded=0;" parent="1" vertex="1">
                    <mxGeometry x="680" y="160" width="40" height="40" as="geometry"/>
                </mxCell>
                <mxCell id="201" value="&lt;font color=&quot;#6c8ebf&quot;&gt;Ideal&lt;/font&gt;" style="text;html=1;strokeColor=none;fillColor=none;align=center;verticalAlign=middle;whiteSpace=wrap;rounded=0;" parent="1" vertex="1">
                    <mxGeometry x="720" y="100" width="40" height="40" as="geometry"/>
                </mxCell>
                <mxCell id="202" value="0" style="rounded=0;whiteSpace=wrap;html=1;strokeColor=none;fillColor=none;align=center;" parent="1" vertex="1">
                    <mxGeometry x="190" y="370" width="20" height="20" as="geometry"/>
                </mxCell>
                <mxCell id="205" value="" style="endArrow=none;html=1;rounded=0;strokeWidth=2;fillColor=#d5e8d4;strokeColor=#82b366;" edge="1" parent="1">
                    <mxGeometry width="50" height="50" relative="1" as="geometry">
                        <mxPoint x="200" y="360" as="sourcePoint"/>
                        <mxPoint x="680" y="180" as="targetPoint"/>
                        <Array as="points">
                            <mxPoint x="280" y="340"/>
                            <mxPoint x="360" y="360"/>
                            <mxPoint x="440" y="240"/>
                            <mxPoint x="520" y="200"/>
                            <mxPoint x="600" y="200"/>
                        </Array>
                    </mxGeometry>
                </mxCell>
                <mxCell id="206" value="" style="endArrow=none;html=1;rounded=0;strokeWidth=2;fillColor=#dae8fc;strokeColor=#6c8ebf;" edge="1" parent="1">
                    <mxGeometry width="50" height="50" relative="1" as="geometry">
                        <mxPoint x="200" y="120" as="sourcePoint"/>
                        <mxPoint x="720" y="80" as="targetPoint"/>
                        <Array as="points">
                            <mxPoint x="280" y="100"/>
                            <mxPoint x="520" y="80"/>
                            <mxPoint x="620" y="80"/>
                        </Array>
                    </mxGeometry>
                </mxCell>
            </root>
        </mxGraphModel>
    </diagram>
</mxfile>